<svg width="98" height="172" viewBox="0 0 98 172" fill="none" xmlns="http://www.w3.org/2000/svg">
<path d="M94 106C94 142.451 86.5 172 47.5 172C8.5 172 1 142.451 1 106C1 69.5492 21.8188 40 47.5 40C73.1812 40 94 69.5492 94 106Z" fill="#FFDB5C"/>
<path d="M73.3435 137.143C73.3435 164.614 55.5604 165.643 47 165.643C38.4396 165.643 20 164.614 20 137.143C20 109.673 38.4396 146.702 47 146.702C55.5604 146.702 73.3435 109.673 73.3435 137.143Z" fill="#FE3838"/>
<path d="M2 12.5L25.5 48H47H68.5L90.5 9L56.5 29L46 0L33 29L2 12.5Z" fill="#1FB507"/>
<path d="M36.6186 98.1571C42.3664 106.156 46.0351 115 36.6186 115C27.2022 115 6.04982 106.299 2.02723 91.6716C0.189325 84.9883 -2.97638 72 6.44009 72C15.8566 72 29.1368 87.7452 36.6186 98.1571Z" fill="#39FF07"/>
<path d="M57.5605 98.1571C51.2155 106.156 47.1657 115 57.5605 115C67.9553 115 91.3053 106.299 95.7458 91.6716C97.7746 84.9883 101.269 72 90.8745 72C80.4796 72 65.8197 87.7452 57.5605 98.1571Z" fill="black"/>
<path d="M57.5605 98.1571C51.2155 106.156 47.1657 115 57.5605 115C67.9553 115 91.3053 106.299 95.7458 91.6716C97.7746 84.9883 101.269 72 90.8745 72C80.4796 72 65.8197 87.7452 57.5605 98.1571Z" fill="#39FF07"/>
<path d="M54.7718 103.025L58.9003 97.0381C58.9003 97.0381 51.6364 98.0315 46.8686 98.0315C41.9626 98.0315 34.1292 97.0381 34.1292 97.0381L38.8475 102.693C38.8475 102.693 43.7654 101.301 46.8686 101.296C49.9042 101.29 54.7718 103.025 54.7718 103.025Z" fill="#39FF07" stroke="#39FF07"/>
<path d="M34.4704 98.0866C39.3876 105.09 42.4972 112.822 34.3398 112.78C26.1823 112.738 7.92559 105.053 4.55429 92.2738C3.01396 86.4352 0.372253 75.0902 8.52971 75.1323C16.6872 75.1745 28.0696 88.9699 34.4704 98.0866Z" fill="#050505"/>
<path d="M34.4704 98.0866C39.3876 105.09 42.4972 112.822 34.3398 112.78C26.1823 112.738 7.92559 105.053 4.55429 92.2738C3.01396 86.4352 0.372253 75.0902 8.52971 75.1323C16.6872 75.1745 28.0696 88.9699 34.4704 98.0866Z" fill="black"/>
<path d="M62.5964 98.6711C57.6518 105.36 54.4678 112.767 62.4707 112.809C70.4736 112.85 88.5155 105.64 92.0434 93.3792C93.6553 87.7775 96.4427 76.8893 88.4398 76.8479C80.4369 76.8066 69.0328 89.9645 62.5964 98.6711Z" fill="#050505"/>
<path d="M62.5964 98.6711C57.6518 105.36 54.4678 112.767 62.4707 112.809C70.4736 112.85 88.5155 105.64 92.0434 93.3792C93.6553 87.7775 96.4427 76.8893 88.4398 76.8479C80.4369 76.8066 69.0328 89.9645 62.5964 98.6711Z" fill="black"/>
</svg>
