<svg width="200" height="200" viewBox="0 0 200 200" fill="none" xmlns="http://www.w3.org/2000/svg">
<path d="M0 20C0 8.95431 8.95431 0 20 0H180C191.046 0 200 8.95431 200 20V180C200 191.046 191.046 200 180 200H20C8.95431 200 0 191.046 0 180V20Z" fill="#6CABDD"/>
<rect x="142" y="94" width="6" height="11" fill="black"/>
<path d="M147 113C147 149.451 139.5 179 100.5 179C61.5 179 54 149.451 54 113C54 76.5492 74.8188 47 100.5 47C126.181 47 147 76.5492 147 113Z" fill="#FFDB5C"/>
<path d="M56 18.5L79.5 54H101H122.5L144.5 15L110.5 35L100 6L87 35L56 18.5Z" fill="#1FB507"/>
<rect x="55" y="85" width="35" height="29" rx="14.5" fill="black"/>
<rect x="59" y="87" width="28" height="25" rx="12.5" fill="#222222"/>
<path d="M111 99.5C111 91.4919 117.492 85 125.5 85H131.5C139.508 85 146 91.4919 146 99.5C146 107.508 139.508 114 131.5 114H125.5C117.492 114 111 107.508 111 99.5Z" fill="black"/>
<rect x="88" y="96" width="26" height="7" fill="black"/>
<rect x="115" y="87" width="28" height="25" rx="12.5" fill="#222222"/>
<rect x="51" y="94" width="6" height="11" fill="black"/>
<rect x="145" y="94" width="6" height="11" fill="black"/>
<ellipse cx="131" cy="129" rx="12" ry="3" fill="#FFB0B0"/>
<ellipse cx="66" cy="129" rx="12" ry="3" fill="#FFB0B0"/>
</svg>
